#!OML:ASF F:\VICON\USERDATA\INSTALL\rory3\rory3.ASF
:FULLY-SPECIFIED
:DEGREES
83
root 0.432211 23.5307 6.03322 30.8338 -26.8861 -19.238
lowerback -11.7688 10.5945 11.7806
upperback -10.26 12.9673 2.09777
thorax -2.54771 5.9437 -2.72007
lowerneck -12.4102 -1.92947 -3.37533
upperneck 25.3006 -2.92617 3.59316
head 10.2081 -1.27069 1.47918
rclavicle 2.20837e-014 -5.76476e-015
rhumerus 3.37181 8.9669 -22.4195
rradius 30.49
rwrist 1.46426
rhand -18.4643 -50.2586
rfingers 7.12502
rthumb 7.82218 -80.0939
lclavicle 2.20837e-014 -5.76476e-015
lhumerus -33.4989 5.72275 -7.71059
lradius 37.7933
lwrist 18.2438
lhand -34.6126 -29.4522
lfingers 7.12502
lthumb -7.7709 0.385028
rfemur 13.9216 -2.24127 13.7006
rtibia 41.1832
rfoot 45.0326 -3.04972
rtoes 5.06397
lfemur -82.4695 26.6371 0.445625
ltibia 35.5037
lfoot 26.0322 11.3033
ltoes -7.42129
84
root 0.435242 23.4746 6.46674 30.5521 -26.6448 -19.9929
lowerback -11.1362 10.6357 12.7754
upperback -10.3808 13.0575 2.48709
thorax -2.92278 5.91865 -2.92449
lowerneck -11.8002 -1.93016 -3.41904
upperneck 25.559 -2.86156 3.27881
head 10.1768 -1.28783 1.38917
rclavicle 8.55302e-014 4.95968e-014
rhumerus 1.44445 7.52805 -22.153
rradius 29.7852
rwrist 1.13077
rhand -17.7127 -53.7894
rfingers 7.12502
rthumb 8.54762 -83.5964
lclavicle 8.55302e-014 4.95968e-014
lhumerus -35.6389 5.87627 -8.7895
lradius 37.4912
lwrist 20.7191
lhand -36.2829 -27.8609
lfingers 7.12502
lthumb -9.38276 1.91022
rfemur 14.1046 -2.58312 13.4866
rtibia 43.6429
rfoot 45.4071 -4.33489
rtoes 6.62722
lfemur -79.9744 26.0383 1.94876
ltibia 34.2143
lfoot 26.3546 13.6606
ltoes -4.07108
85
root 0.436303 23.4058 6.90191 30.4231 -26.3568 -20.9701
lowerback -10.917 10.7924 14.1511
upperback -10.2852 13.1772 2.80509
thorax -2.75525 5.91978 -3.27632
lowerneck -11.3135 -1.86078 -3.47411
upperneck 25.6411 -2.76784 3.27567
head 10.109 -1.2553 1.41278
rclavicle -1.47859e-013 -9.56651e-014
rhumerus -0.462771 6.06533 -21.8227
rradius 29.1586
rwrist 0.381722
rhand -17.7514 -51.6062
rfingers 7.12502
rthumb 8.51029 -81.4148
lclavicle -1.47859e-013 -9.56651e-014
lhumerus -37.5532 5.9498 -9.61213
lradius 37.2412
lwrist 21.6214
lhand -37.9213 -25.2824
lfingers 7.12502
lthumb -10.9634 4.41137
rfemur 14.0958 -2.75647 13.5906
rtibia 46.2534
rfoot 45.6472 -6.9072
rtoes 9.63769
lfemur -77.6479 25.6268 3.05138
ltibia 32.958
lfoot 27.2604 12.9314
ltoes -6.02066
86
root 0.43387 23.329 7.34203 30.1705 -26.1502 -21.8532
lowerback -10.8727 10.9853 15.4965
upperback -9.989 13.2878 3.04472
thorax -2.25955 5.94747 -3.63242
lowerneck -11.09 -1.83078 -3.58667
upperneck 25.741 -2.77832 3.53062
head 10.1073 -1.24419 1.52315
rclavicle -7.45443e-014 -3.76945e-014
rhumerus -2.29614 4.47462 -21.3848
rradius 28.6367
rwrist -0.116887
rhand -18.4022 -47.482
rfingers 7.12502
rthumb 7.88216 -77.315
lclavicle -7.45443e-014 -3.76945e-014
lhumerus -39.1678 7.10501 -10.8173
lradius 36.436
lwrist 21.4651
lhand -37.6475 -25.5517
lfingers 7.12502
lthumb -10.6993 4.15587
rfemur 14.0861 -2.8249 13.6285
rtibia 48.9384
rfoot 45.7618 -8.95289
rtoes 12.1561
lfemur -75.3515 25.2327 3.72095
ltibia 31.8572
lfoot 28.6197 9.0046
ltoes -12.5055
87
root 0.431077 23.2365 7.78242 29.8547 -25.775 -22.7332
lowerback -10.6967 11.0649 16.8645
upperback -9.77173 13.2832 3.33352
thorax -1.95078 5.90763 -3.99859
lowerneck -10.8007 -1.79408 -3.73427
upperneck 25.9366 -2.77779 3.78282
head 10.1275 -1.23289 1.64121
rclavicle -7.51703e-014 -5.27245e-014
rhumerus -4.08488 2.93073 -20.9721
rradius 28.2773
rwrist 0.262463
rhand -20.4095 -50.5854
rfingers 7.12502
rthumb 5.94445 -80.482
lclavicle -7.51703e-014 -5.27245e-014
lhumerus -40.7976 8.31026 -12.1923
lradius 35.5904
lwrist 21.0065
lhand -37.3133 -25.9972
lfingers 7.12502
lthumb -10.3769 3.72671
rfemur 14.1126 -3.02596 13.774
rtibia 51.6462
rfoot 46.264 -8.15949
rtoes 11.1702
lfemur -73.2109 24.7856 4.3545
ltibia 30.9711
lfoot 29.1427 8.44683
ltoes -12.2193
88
root 0.427356 23.1336 8.2211 29.3789 -25.4422 -23.3413
lowerback -10.3446 11.0867 17.9942
upperback -9.73522 13.2912 3.55355
thorax -1.96281 5.85717 -4.36886
lowerneck -10.1724 -1.76406 -3.88119
upperneck 26.1426 -2.77427 3.93703
head 10.084 -1.23568 1.72697
rclavicle -9.14316e-014 -4.24405e-014
rhumerus -6.26134 2.79181 -20.5348
rradius 28.6515
rwrist -0.388102
rhand -19.4056 -60.3431
rfingers 7.12502
rthumb 6.91367 90.2102
lclavicle -9.14316e-014 -4.24405e-014
lhumerus -42.2395 9.36949 -13.6474
lradius 34.701
lwrist 20.2465
lhand -36.9029 -26.5316
lfingers 7.12502
lthumb -9.98094 3.21175
rfemur 14.1893 -3.24146 13.6906
rtibia 54.3571
rfoot 47.0866 -7.5927
rtoes 11.09
lfemur -70.9061 24.1588 4.82271
ltibia 30.2287
lfoot 28.5786 13.1176
ltoes -3.99144
89
root 0.417881 23.0228 8.6661 28.7997 -25.2219 -23.6357
lowerback -10.2341 11.1671 18.8011
upperback -9.68505 13.3451 3.66209
thorax -1.84977 5.85447 -4.64109
lowerneck -9.50462 -1.81003 -3.86662
upperneck 26.3124 -2.8488 3.84994
head 10.0179 -1.28617 1.69056
rclavicle 4.13301e-014 1.57537e-014
rhumerus -8.59999 3.22099 -20.17
rradius 29.218
rwrist -2.19128
rhand -17.7126 -78.3049
rfingers 7.12502
rthumb 8.54769 108.112
lclavicle 4.13301e-014 1.57537e-014
lhumerus -43.393 10.3895 -14.9808
lradius 33.7998
lwrist 19.5609
lhand -36.6926 -26.5049
lfingers 7.12502
lthumb -9.77805 3.24809
rfemur 14.1933 -3.46113 13.309
rtibia 57.1132
rfoot 47.0475 -9.75871
rtoes 13.768
lfemur -68.5448 23.3905 4.94346
ltibia 29.5321
lfoot 28.8587 13.0479
ltoes -4.76478
